# xmcd
#
# Track frame offsets: 
#        150
#        17633
#        33548
#        50375
#        66729
#        83970
#        101956
#        114345
#        128014
#        165661
#        183666
#        200201
#        216307
#        232614
#
# Disc length: 3433 seconds
#
# Revision: 1
# Processed by: cddbd v1.5.2PL0 Copyright (c) Steve Scherf et al.
# Submitted via: ExactAudioCopy v1.1
#
DISCID=ca0d670e
DTITLE=Diana Ross - Touch Me In The Morning (Expanded Edition) - Disc 
DTITLE=1
DYEAR=2009
DGENRE=R&B
TTITLE0=Touch Me In The Morning
TTITLE1=All Of My Life
TTITLE2=We Need You
TTITLE3=Leave A Little Room
TTITLE4=I Won't Last A Day Without You
TTITLE5=Little Girl Blue
TTITLE6=My Baby (My Baby Own)
TTITLE7=Imagine
TTITLE8=Brown Baby - Save The Children (Medley)
TTITLE9=Touch Me In The Morning (alt 1)
TTITLE10=All Of My Life (alt)
TTITLE11=We Need You (alt)
TTITLE12=Leave A Little Room (alt)
TTITLE13=Touch Me In The Morning (alt 2)
EXTD=
EXTT0=
EXTT1=
EXTT2=
EXTT3=
EXTT4=
EXTT5=
EXTT6=
EXTT7=
EXTT8=
EXTT9=
EXTT10=
EXTT11=
EXTT12=
EXTT13=
PLAYORDER=
